# xmcd
#
# Track frame offsets: 
#        150
#        20372
#        34781
#        52175
#        67484
#        84413
#        100682
#        111544
#        124116
#        144728
#        161470
#        175054
#        187641
#        200108
#        213242
#
# Disc length: 3007 seconds
#
# Revision: 0
# Processed by: cddbd v1.5.2PL0 Copyright (c) Steve Scherf et al.
# Submitted via: ExactAudioCopyFreeDBPlugin 1.0
#
DISCID=d80bbd0f
DTITLE=Various Artist - Keep Your Soul: A TributeTo Doug Sahm
DYEAR=2009
DGENRE=Country
TTITLE0=Little Willie G. - She's About a Mover
TTITLE1=Los Lobos - It Didn't Even Bring Me Down
TTITLE2=Alejandro Escovedo - Too Little Too Late
TTITLE3=Greg Dulli - You Was For Real
TTITLE4=Dave Alvin - Dynamite Woman
TTITLE5=Flaco Jimenez With The West Side Horns - Ta Bueno Compadre (It
TTITLE5='s OK Friend)
TTITLE6=Delbert McClinton - Texas Me
TTITLE7=Terry Allen - I'm Not That Kat Anymore
TTITLE8=Jimmie Vaughan - Why, Why, Why
TTITLE9=Charlie Sexton and The Mystic Knights Of The Sea - You're Doin' 
TTITLE9=It Too Hard
TTITLE10=The Gourds - Nuevo Laredo
TTITLE11=Freda and The Firedogs - Be Real
TTITLE12=Joe "King" Carrasco and Texas Tornados - Adios Mexico
TTITLE13=Shawn Sahm - Mendocino
TTITLE14=Sarah Borges and The Broken Singles - I Wanna Be Your Mama Agai
TTITLE14=n
EXTD=
EXTT0=
EXTT1=
EXTT2=
EXTT3=
EXTT4=
EXTT5=
EXTT6=
EXTT7=
EXTT8=
EXTT9=
EXTT10=
EXTT11=
EXTT12=
EXTT13=
EXTT14=
PLAYORDER=
